<?xml version="1.0" encoding="UTF-8"?>
<!DOCTYPE svg PUBLIC "-//W3C//DTD SVG 1.1//EN" "http://www.w3.org/Graphics/SVG/1.1/DTD/svg11.dtd">
<svg version="1.1" xmlns="http://www.w3.org/2000/svg" xmlns:xlink="http://www.w3.org/1999/xlink" x="0px" y="0px" width="128" height="128" viewBox="0, 0, 128, 128">
  <g id="Background">
    <rect x="0" y="0" width="128" height="128" fill="#000000" fill-opacity="0"/>
  </g>
  <g id="Background"/>
  <g id="Background">
    <path d="M18.093,6 L109.905,6 C116.561,6 122,11.439 122,18.093 L122,109.907 C122,116.561 116.561,122 109.905,122 L18.093,122 C11.439,122 6,116.561 6,109.907 L6,18.093 C6,11.439 11.439,6 18.093,6" fill="#737370"/>
    <path d="M64,19.243 C39.282,19.243 19.243,39.284 19.243,64 C19.243,88.716 39.282,108.755 64,108.755 C88.716,108.755 108.755,88.716 108.755,64 C108.755,39.284 88.716,19.243 64,19.243" fill="#EBEDED"/>
    <path d="M49.308,38.602 L58.733,55.656 C59.378,56.831 59.323,58.058 58.569,58.857 C57.82,59.648 56.6,59.793 55.382,59.233 L37.621,51.048 C27.916,46.573 44.151,29.264 49.308,38.602 z" fill="#737370"/>
    <path d="M78.692,90.406 C83.847,99.741 100.082,82.428 90.379,77.957 L72.618,69.768 C71.398,69.206 70.179,69.352 69.429,70.151 C68.675,70.95 68.621,72.175 69.265,73.348 L78.692,90.406 z" fill="#737370"/>
    <path d="M92.086,55.848 C102.283,52.743 101.877,76.468 91.808,72.919 L73.352,66.43 C72.088,65.982 71.316,65.023 71.334,63.931 C71.351,62.83 72.16,61.914 73.444,61.521 L92.086,55.848 z" fill="#737370"/>
    <path d="M78.692,38.602 C83.847,29.264 100.082,46.573 90.379,51.048 L72.618,59.233 C71.398,59.793 70.179,59.648 69.429,58.857 C68.675,58.058 68.621,56.831 69.265,55.656 L78.692,38.602 z" fill="#737370"/>
    <path d="M72.434,35.973 C75.782,25.842 52.057,25.688 55.358,35.844 L61.409,54.446 C61.825,55.725 62.766,56.52 63.863,56.524 C64.959,56.528 65.895,55.748 66.32,54.474 L72.434,35.973 z" fill="#737370"/>
    <path d="M72.434,92.027 C75.782,102.156 52.057,102.312 55.358,92.156 L61.409,73.554 C61.825,72.275 62.766,71.48 63.863,71.476 C64.959,71.471 65.895,72.252 66.32,73.527 L72.434,92.027 z" fill="#737370"/>
    <path d="M49.308,90.406 C44.151,99.741 27.916,82.428 37.621,77.957 L55.382,69.768 C56.6,69.206 57.82,69.352 58.569,70.151 C59.323,70.95 59.378,72.175 58.733,73.348 L49.308,90.406 z" fill="#737370"/>
    <path d="M35.913,55.848 C25.715,52.743 26.121,76.468 36.191,72.919 L54.646,66.43 C55.911,65.982 56.682,65.023 56.665,63.931 C56.647,62.83 55.838,61.914 54.556,61.521 L35.913,55.848 z" fill="#737370"/>
  </g>
  <defs/>
</svg>
